<svg width="324" height="43" viewBox="0 0 324 43" fill="none" xmlns="http://www.w3.org/2000/svg">
<path d="M58.384 34.34C56.4573 34.34 54.8027 34.0113 53.42 33.354C52.06 32.6967 50.8247 31.7107 49.714 30.396L52.774 27.336C53.4767 28.2653 54.2927 28.9907 55.222 29.512C56.1513 30.0107 57.2847 30.26 58.622 30.26C59.8233 30.26 60.7753 30.022 61.478 29.546C62.2033 29.07 62.566 28.4127 62.566 27.574C62.566 26.8487 62.362 26.2593 61.954 25.806C61.546 25.3527 61.002 24.9673 60.322 24.65C59.6647 24.3327 58.928 24.0493 58.112 23.8C57.3187 23.528 56.514 23.222 55.698 22.882C54.9047 22.542 54.168 22.1227 53.488 21.624C52.8307 21.1027 52.298 20.4453 51.89 19.652C51.482 18.836 51.278 17.816 51.278 16.592C51.278 15.1413 51.6293 13.906 52.332 12.886C53.0347 11.866 53.998 11.084 55.222 10.54C56.446 9.996 57.8287 9.724 59.37 9.724C61.002 9.724 62.4753 10.03 63.79 10.642C65.1047 11.254 66.1813 12.0473 67.02 13.022L63.96 16.082C63.2573 15.3113 62.532 14.7447 61.784 14.382C61.0587 14.0193 60.2313 13.838 59.302 13.838C58.2367 13.838 57.398 14.042 56.786 14.45C56.174 14.858 55.868 15.4473 55.868 16.218C55.868 16.8753 56.072 17.408 56.48 17.816C56.888 18.224 57.4207 18.5753 58.078 18.87C58.758 19.1647 59.4947 19.448 60.288 19.72C61.104 19.992 61.9087 20.298 62.702 20.638C63.518 20.978 64.2547 21.42 64.912 21.964C65.592 22.508 66.136 23.2107 66.544 24.072C66.952 24.9107 67.156 25.9533 67.156 27.2C67.156 29.4213 66.374 31.1667 64.81 32.436C63.246 33.7053 61.104 34.34 58.384 34.34ZM81.3794 34V24.582C81.3794 23.6073 81.0734 22.814 80.4614 22.202C79.8494 21.59 79.0561 21.284 78.0814 21.284C77.4468 21.284 76.8801 21.42 76.3814 21.692C75.8828 21.964 75.4861 22.3493 75.1914 22.848C74.9194 23.3467 74.7834 23.9247 74.7834 24.582L73.0494 23.698C73.0494 22.406 73.3214 21.284 73.8654 20.332C74.4094 19.3573 75.1574 18.598 76.1094 18.054C77.0841 17.51 78.1948 17.238 79.4414 17.238C80.6881 17.238 81.7874 17.51 82.7394 18.054C83.7141 18.598 84.4734 19.346 85.0174 20.298C85.5614 21.25 85.8334 22.3493 85.8334 23.596V34H81.3794ZM70.3294 34V9.418H74.7834V34H70.3294ZM89.4212 34V17.578H93.9092V34H89.4212ZM91.6652 14.926C90.9399 14.926 90.3392 14.688 89.8632 14.212C89.3872 13.7133 89.1492 13.1013 89.1492 12.376C89.1492 11.6733 89.3872 11.0727 89.8632 10.574C90.3392 10.0753 90.9399 9.826 91.6652 9.826C92.4132 9.826 93.0139 10.0753 93.4672 10.574C93.9432 11.0727 94.1812 11.6733 94.1812 12.376C94.1812 13.1013 93.9432 13.7133 93.4672 14.212C93.0139 14.688 92.4132 14.926 91.6652 14.926ZM108.327 34L101.969 25.534L108.293 17.578H113.427L106.015 26.554L106.185 24.378L113.767 34H108.327ZM97.8548 34V9.418H102.309V34H97.8548ZM126.868 34V24.582C126.868 23.6073 126.562 22.814 125.95 22.202C125.338 21.59 124.544 21.284 123.57 21.284C122.935 21.284 122.368 21.42 121.87 21.692C121.371 21.964 120.974 22.3493 120.68 22.848C120.408 23.3467 120.272 23.9247 120.272 24.582L118.538 23.698C118.538 22.406 118.81 21.284 119.354 20.332C119.898 19.3573 120.646 18.598 121.598 18.054C122.572 17.51 123.683 17.238 124.93 17.238C126.176 17.238 127.276 17.51 128.228 18.054C129.202 18.598 129.962 19.346 130.506 20.298C131.05 21.25 131.322 22.3493 131.322 23.596V34H126.868ZM115.818 34V9.418H120.272V34H115.818ZM141.778 34.34C140.282 34.34 138.933 33.966 137.732 33.218C136.53 32.47 135.59 31.45 134.91 30.158C134.23 28.866 133.89 27.4153 133.89 25.806C133.89 24.174 134.23 22.712 134.91 21.42C135.59 20.128 136.53 19.108 137.732 18.36C138.933 17.612 140.282 17.238 141.778 17.238C142.956 17.238 144.01 17.476 144.94 17.952C145.869 18.428 146.606 19.0967 147.15 19.958C147.716 20.7967 148.022 21.7487 148.068 22.814V28.73C148.022 29.818 147.716 30.7813 147.15 31.62C146.606 32.4587 145.869 33.1273 144.94 33.626C144.01 34.102 142.956 34.34 141.778 34.34ZM142.594 30.226C143.84 30.226 144.849 29.818 145.62 29.002C146.39 28.1633 146.776 27.0867 146.776 25.772C146.776 24.9107 146.594 24.1513 146.232 23.494C145.892 22.814 145.404 22.2927 144.77 21.93C144.158 21.5447 143.432 21.352 142.594 21.352C141.778 21.352 141.052 21.5447 140.418 21.93C139.806 22.2927 139.318 22.814 138.956 23.494C138.616 24.1513 138.446 24.9107 138.446 25.772C138.446 26.656 138.616 27.438 138.956 28.118C139.318 28.7753 139.806 29.2967 140.418 29.682C141.052 30.0447 141.778 30.226 142.594 30.226ZM146.538 34V29.58L147.252 25.568L146.538 21.624V17.578H150.958V34H146.538ZM154.898 34V17.578H159.352V34H154.898ZM159.352 24.922L157.618 23.766C157.822 21.7487 158.411 20.162 159.386 19.006C160.36 17.8273 161.766 17.238 163.602 17.238C164.395 17.238 165.109 17.374 165.744 17.646C166.378 17.8953 166.956 18.3147 167.478 18.904L164.69 22.1C164.44 21.828 164.134 21.624 163.772 21.488C163.432 21.352 163.035 21.284 162.582 21.284C161.63 21.284 160.848 21.59 160.236 22.202C159.646 22.7913 159.352 23.698 159.352 24.922ZM176.168 34L168.416 10.098H172.972L178.718 28.492H177.188L182.832 10.098H186.266L191.91 28.492H190.346L196.126 10.098H200.682L192.896 34H189.462L183.784 15.64H185.28L179.636 34H176.168ZM201.183 34V17.578H205.637V34H201.183ZM205.637 24.922L203.903 23.766C204.107 21.7487 204.696 20.162 205.671 19.006C206.646 17.8273 208.051 17.238 209.887 17.238C210.68 17.238 211.394 17.374 212.029 17.646C212.664 17.8953 213.242 18.3147 213.763 18.904L210.975 22.1C210.726 21.828 210.42 21.624 210.057 21.488C209.717 21.352 209.32 21.284 208.867 21.284C207.915 21.284 207.133 21.59 206.521 22.202C205.932 22.7913 205.637 23.698 205.637 24.922ZM215.327 34V17.578H219.815V34H215.327ZM217.571 14.926C216.846 14.926 216.245 14.688 215.769 14.212C215.293 13.7133 215.055 13.1013 215.055 12.376C215.055 11.6733 215.293 11.0727 215.769 10.574C216.245 10.0753 216.846 9.826 217.571 9.826C218.319 9.826 218.92 10.0753 219.373 10.574C219.849 11.0727 220.087 11.6733 220.087 12.376C220.087 13.1013 219.849 13.7133 219.373 14.212C218.92 14.688 218.319 14.926 217.571 14.926ZM226.175 34V10.744H230.629V34H226.175ZM222.333 21.488V17.578H234.471V21.488H222.333ZM244.431 34.34C242.709 34.34 241.179 33.9773 239.841 33.252C238.504 32.504 237.439 31.484 236.645 30.192C235.875 28.9 235.489 27.4267 235.489 25.772C235.489 24.14 235.863 22.6893 236.611 21.42C237.382 20.128 238.425 19.108 239.739 18.36C241.054 17.5893 242.516 17.204 244.125 17.204C245.712 17.204 247.106 17.5667 248.307 18.292C249.531 18.9947 250.483 19.9693 251.163 21.216C251.866 22.44 252.217 23.834 252.217 25.398C252.217 25.6927 252.195 25.9987 252.149 26.316C252.127 26.6107 252.07 26.9507 251.979 27.336L238.175 27.37V24.038L249.905 24.004L248.103 25.398C248.058 24.4233 247.877 23.6073 247.559 22.95C247.265 22.2927 246.823 21.794 246.233 21.454C245.667 21.0913 244.964 20.91 244.125 20.91C243.241 20.91 242.471 21.114 241.813 21.522C241.156 21.9073 240.646 22.4627 240.283 23.188C239.943 23.8907 239.773 24.7293 239.773 25.704C239.773 26.7013 239.955 27.574 240.317 28.322C240.703 29.0473 241.247 29.614 241.949 30.022C242.652 30.4073 243.468 30.6 244.397 30.6C245.236 30.6 245.995 30.464 246.675 30.192C247.355 29.8973 247.945 29.4667 248.443 28.9L251.061 31.518C250.268 32.4473 249.293 33.15 248.137 33.626C247.004 34.102 245.769 34.34 244.431 34.34ZM260.616 34.374C259.687 34.374 258.769 34.2493 257.862 34C256.978 33.7507 256.162 33.4107 255.414 32.98C254.666 32.5267 254.02 31.9827 253.476 31.348L256.128 28.662C256.695 29.2967 257.352 29.7727 258.1 30.09C258.848 30.4073 259.675 30.566 260.582 30.566C261.307 30.566 261.851 30.464 262.214 30.26C262.599 30.056 262.792 29.75 262.792 29.342C262.792 28.8887 262.588 28.5373 262.18 28.288C261.795 28.0387 261.285 27.8347 260.65 27.676C260.015 27.4947 259.347 27.302 258.644 27.098C257.964 26.8713 257.307 26.588 256.672 26.248C256.037 25.8853 255.516 25.398 255.108 24.786C254.723 24.1513 254.53 23.3353 254.53 22.338C254.53 21.2953 254.779 20.3887 255.278 19.618C255.799 18.8473 256.536 18.2467 257.488 17.816C258.44 17.3853 259.562 17.17 260.854 17.17C262.214 17.17 263.438 17.408 264.526 17.884C265.637 18.36 266.555 19.074 267.28 20.026L264.594 22.712C264.095 22.1 263.529 21.658 262.894 21.386C262.282 21.114 261.613 20.978 260.888 20.978C260.231 20.978 259.721 21.08 259.358 21.284C259.018 21.488 258.848 21.7713 258.848 22.134C258.848 22.542 259.041 22.8593 259.426 23.086C259.834 23.3127 260.355 23.5167 260.99 23.698C261.625 23.8567 262.282 24.0493 262.962 24.276C263.665 24.48 264.322 24.7747 264.934 25.16C265.569 25.5453 266.079 26.0553 266.464 26.69C266.872 27.3247 267.076 28.1407 267.076 29.138C267.076 30.7473 266.498 32.028 265.342 32.98C264.186 33.9093 262.611 34.374 260.616 34.374ZM273.139 34.34C272.323 34.34 271.655 34.068 271.133 33.524C270.612 32.98 270.351 32.3113 270.351 31.518C270.351 30.7247 270.612 30.056 271.133 29.512C271.655 28.968 272.323 28.696 273.139 28.696C273.933 28.696 274.59 28.968 275.111 29.512C275.633 30.056 275.893 30.7247 275.893 31.518C275.893 32.3113 275.633 32.98 275.111 33.524C274.59 34.068 273.933 34.34 273.139 34.34ZM278.815 34L288.437 10.098H292.211L301.799 34H296.869L289.457 14.382H291.157L283.643 34H278.815ZM283.915 29.546V25.67H296.767V29.546H283.915ZM304.622 34V10.098H309.246V34H304.622Z" fill="black"/>
<path d="M19.9994 0.145374C31.0454 0.145374 39.9994 9.07444 39.9994 20.0897V34.0507C39.9994 35.6376 39.3673 37.1594 38.2421 38.2815C37.1169 39.4036 35.5907 40.034 33.9994 40.034H20.9994V31.2844C20.9994 29.288 21.1214 27.2198 22.1714 25.5205C22.9232 24.3028 23.9288 23.2605 25.12 22.4643C26.3112 21.6682 27.6602 21.1369 29.0754 20.9064L29.4584 20.8446C29.6163 20.7908 29.7534 20.689 29.8505 20.5537C29.9475 20.4183 29.9997 20.2561 29.9997 20.0897C29.9997 19.9233 29.9475 19.761 29.8505 19.6257C29.7534 19.4903 29.6163 19.3886 29.4584 19.3348L29.0754 19.273C27.0076 18.9361 25.0981 17.9601 23.6166 16.4826C22.135 15.0052 21.1562 13.101 20.8184 11.039L20.7564 10.657C20.7025 10.4996 20.6005 10.3629 20.4647 10.2661C20.329 10.1693 20.1663 10.1173 19.9994 10.1173C19.8326 10.1173 19.6699 10.1693 19.5341 10.2661C19.3984 10.3629 19.2964 10.4996 19.2424 10.657L19.1804 11.039C18.9494 12.4503 18.4166 13.7955 17.6182 14.9835C16.8199 16.1714 15.7746 17.1741 14.5534 17.9237C12.8494 18.9708 10.7754 19.0925 8.77344 19.0925H0.0234375C0.546438 8.54093 9.28944 0.145374 19.9994 0.145374Z" fill="#5044E5"/>
<path d="M0 21.0869H8.774C10.776 21.0869 12.85 21.2086 14.554 22.2556C15.886 23.0741 17.0072 24.1923 17.828 25.5205C18.878 27.2198 19 29.288 19 31.2844V40.034H6C4.4087 40.034 2.88258 39.4036 1.75736 38.2815C0.632141 37.1594 0 35.6376 0 34.0507L0 21.0869ZM40 2.13981C40 2.66876 39.7893 3.17605 39.4142 3.55008C39.0391 3.92411 38.5304 4.13424 38 4.13424C37.4696 4.13424 36.9609 3.92411 36.5858 3.55008C36.2107 3.17605 36 2.66876 36 2.13981C36 1.61085 36.2107 1.10356 36.5858 0.72953C36.9609 0.355501 37.4696 0.145374 38 0.145374C38.5304 0.145374 39.0391 0.355501 39.4142 0.72953C39.7893 1.10356 40 1.61085 40 2.13981Z" fill="#5044E5"/>
</svg>
